<svg version="1.1" id="Layer_1" xmlns="http://www.w3.org/2000/svg" xmlns:xlink="http://www.w3.org/1999/xlink" x="0px" y="0px"
	 width="100%" viewBox="0 0 500 154" enable-background="new 0 0 500 154" xml:space="preserve">
<path fill="#FEFEFE" opacity="1.000000" stroke="none" 
	d="
M320.000000,155.000000 
	C213.333374,155.000000 107.166740,155.000000 1.000085,155.000000 
	C1.000057,103.666725 1.000057,52.333447 1.000028,1.000127 
	C167.666550,1.000085 334.333099,1.000085 500.999756,1.000042 
	C500.999817,52.333202 500.999817,103.666405 500.999908,154.999802 
	C440.833344,155.000000 380.666656,155.000000 320.000000,155.000000 
M104.793724,68.001442 
	C108.833733,67.425484 112.873741,66.849525 116.794777,66.290527 
	C116.959152,65.670952 117.184334,65.315247 117.104774,65.051453 
	C112.419090,49.514828 107.752762,33.971806 102.891266,18.490107 
	C102.593842,17.542938 100.586815,16.341007 99.624329,16.529503 
	C95.141457,17.407433 93.725594,14.960634 92.949387,11.292651 
	C92.695107,10.091019 91.973213,8.988339 91.365189,7.614506 
	C78.228325,11.458041 70.307777,20.205675 65.353249,32.425514 
	C63.723873,31.496284 62.305447,30.697321 60.896404,29.882143 
	C52.797157,25.196470 44.086140,23.969160 34.908680,25.180141 
	C30.497087,25.762260 28.548155,27.594103 30.839300,32.105309 
	C32.131927,34.650459 31.847181,36.526955 28.962431,38.182774 
	C27.720493,38.895638 26.627811,41.737190 27.035973,43.162441 
	C30.500521,55.260254 34.313286,67.258682 38.053463,79.277000 
	C39.115017,82.688095 40.281307,86.066597 41.356613,89.329697 
	C42.230137,89.273857 42.620296,89.367401 42.852646,89.217056 
	C53.805408,82.130089 65.559464,79.449631 78.495445,82.259323 
	C79.869125,82.557678 82.028938,81.456818 83.148727,80.332481 
	C89.044579,74.412689 96.001801,70.441147 104.793724,68.001442 
M250.369385,89.705292 
	C251.631454,90.421555 252.893524,91.137825 254.324478,91.949936 
	C255.102585,90.711861 255.775253,89.641571 256.428101,88.602821 
	C250.778030,83.750908 244.689529,82.807716 240.463135,86.396225 
	C233.952164,91.924469 237.711105,97.573334 241.022736,102.930420 
	C231.758865,107.682922 228.877167,113.889412 232.618286,120.401299 
	C236.782211,127.649139 246.244797,128.382095 254.565781,122.922905 
	C258.017883,124.362259 260.776855,125.512611 263.535828,126.662956 
	C264.108917,126.210365 264.682037,125.757782 265.255127,125.305191 
	C256.045593,119.237343 258.975037,112.276535 262.544281,105.236641 
	C262.872437,104.589363 262.854248,103.766472 263.024597,102.881050 
	C255.344589,101.601097 257.983307,109.465187 254.292892,111.830994 
	C250.893768,107.261978 247.159821,102.784561 244.123871,97.875481 
	C243.024628,96.098038 242.757599,92.844269 243.682434,91.095108 
	C244.365112,89.803986 247.596603,89.860527 250.369385,89.705292 
M85.560806,86.141830 
	C82.633438,86.141830 79.706078,86.141830 76.733154,86.141830 
	C76.733154,99.790527 76.733154,112.803177 76.733154,126.128601 
	C78.664658,125.975029 80.214790,125.851776 82.049591,125.705894 
	C82.049591,120.028389 82.049591,114.766411 82.049591,109.049904 
	C87.434547,109.049904 92.510323,109.049904 97.664528,109.049904 
	C97.664528,107.177628 97.664528,105.778786 97.664528,103.939850 
	C92.377129,103.939850 87.297180,103.939850 82.127335,103.939850 
	C82.127335,99.574043 82.127335,95.654083 82.127335,91.400032 
	C88.109665,91.400032 93.879044,91.400032 99.751823,91.400032 
	C99.751823,89.514725 99.751823,87.967827 99.751823,86.141830 
	C95.141449,86.141830 90.838905,86.141830 85.560806,86.141830 
M359.288940,126.222595 
	C362.905609,125.702187 366.522308,125.181778 369.955261,124.687798 
	C371.620331,125.215889 373.466003,125.801277 375.668945,126.499977 
	C375.668945,118.260338 375.668945,110.857056 375.668945,102.375656 
	C373.369598,103.443893 371.676941,104.230278 369.534546,105.225586 
	C365.948669,101.843109 361.190033,101.046280 356.114410,103.969322 
	C351.757507,106.478493 350.276886,110.624489 350.509583,115.384010 
	C350.768005,120.668053 353.167389,124.533821 359.288940,126.222595 
M122.313324,102.959984 
	C121.007332,102.721222 119.706345,102.310356 118.394508,102.272141 
	C110.908218,102.054062 105.157631,107.774483 105.484314,115.021240 
	C105.808884,122.221115 111.511322,127.077255 118.982071,126.515785 
	C124.726448,126.084061 128.945068,122.664505 130.130600,117.478928 
	C131.561142,111.221649 129.357605,106.756493 122.313324,102.959984 
M175.333847,121.024155 
	C169.709839,123.370064 167.873520,122.324249 167.721603,116.569099 
	C167.616165,112.573837 167.669876,108.574524 167.597412,104.578011 
	C167.589706,104.152496 167.212082,103.733688 166.891037,103.076195 
	C165.479477,103.186737 164.071457,103.297005 162.354141,103.431496 
	C162.354141,109.070290 162.132797,114.391281 162.414291,119.685547 
	C162.716278,125.365303 167.167267,128.258591 172.581711,126.456223 
	C174.550598,125.800819 176.317291,124.538017 177.287537,124.023560 
	C179.568054,125.002502 181.275848,125.735596 183.429489,126.660080 
	C183.429489,118.197227 183.429489,110.793846 183.429489,103.106087 
	C181.657776,103.190941 180.231308,103.259254 179.628098,103.288147 
	C178.332565,109.356483 177.146454,114.912254 175.333847,121.024155 
M426.826538,109.172935 
	C424.547272,101.185104 419.711792,100.271446 411.505402,105.245827 
	C409.098907,104.183823 407.494263,103.475670 405.389954,102.547020 
	C405.389954,111.060860 405.389954,118.447456 405.389954,125.814499 
	C407.127838,125.814499 408.574127,125.814499 410.119019,125.814499 
	C410.176849,124.785187 410.224579,123.963371 410.268921,123.141365 
	C410.464966,119.509079 410.343872,115.823341 410.945648,112.259644 
	C411.531830,108.788284 413.946777,106.700165 417.668243,106.951927 
	C421.702942,107.224869 421.513123,110.422806 421.568512,113.239632 
	C421.649811,117.372864 421.589447,121.508896 421.589447,125.729630 
	C423.470764,125.729630 425.023285,125.729630 426.855682,125.729630 
	C426.855682,120.309326 426.855682,115.182289 426.826538,109.172935 
M342.082886,123.653740 
	C341.340729,121.196915 340.364655,120.266930 337.433105,121.477623 
	C334.143372,122.836250 330.669159,122.458580 328.634338,118.455208 
	C334.623444,116.292694 340.328003,114.232925 346.009674,112.181412 
	C343.245972,103.880905 337.875549,100.761192 330.751587,102.911407 
	C324.072113,104.927460 320.448517,111.661919 322.502899,118.241600 
	C324.570496,124.863701 331.355194,128.088135 338.644104,125.843338 
	C339.730988,125.508598 340.713348,124.834259 342.082886,123.653740 
M290.989410,87.903740 
	C290.989410,100.484337 290.989410,113.064926 290.989410,125.790604 
	C299.638641,125.790604 307.862976,125.790604 316.119568,125.790604 
	C316.119568,124.045052 316.119568,122.544876 316.119568,120.631004 
	C309.318878,120.631004 302.913666,120.631004 296.085205,120.631004 
	C296.085205,108.988602 296.085205,97.761032 296.085205,85.906372 
	C294.070038,86.345665 292.593262,86.667587 290.989410,87.903740 
M206.271866,106.619484 
	C206.089920,105.709526 206.070557,104.088158 205.699997,104.003456 
	C203.016830,103.390175 199.951004,102.161453 197.618835,102.946716 
	C195.291138,103.730469 192.528915,106.411903 192.099747,108.668808 
	C191.735870,110.582314 194.161057,113.318123 195.872894,115.221687 
	C196.853317,116.311905 199.061188,116.202408 200.364990,117.128075 
	C201.403595,117.865440 201.909851,119.352615 202.652435,120.506935 
	C201.475296,121.261971 200.357864,122.485313 199.104843,122.645020 
	C197.756287,122.816910 196.298233,121.785896 194.855164,121.662155 
	C193.553894,121.550568 192.208282,121.955910 190.882233,122.133270 
	C190.933716,123.060730 190.985199,123.988190 191.036682,124.915649 
	C194.803879,125.303253 198.744400,126.517151 202.274948,125.776573 
	C204.484299,125.313133 207.195465,122.099068 207.596786,119.761353 
	C207.926987,117.838051 205.414795,115.188560 203.714554,113.254601 
	C202.853867,112.275604 200.780777,112.453392 199.661636,111.585121 
	C198.543304,110.717514 197.931351,109.197166 197.097412,107.962975 
	C198.510269,107.348824 199.891785,106.346001 201.344711,106.228844 
	C202.824142,106.109543 204.373856,106.862015 206.271866,106.619484 
M143.232025,120.329414 
	C140.075333,117.159698 139.766891,113.515526 142.179306,109.967232 
	C144.438629,106.644112 147.719559,106.403999 151.480240,107.644379 
	C152.739059,108.059578 154.495850,106.965057 156.983017,106.307274 
	C149.580643,101.362915 142.433502,101.887047 138.251541,106.749603 
	C134.361465,111.272781 134.610962,118.987839 138.781174,123.126442 
	C143.121231,127.433594 150.320984,127.664566 156.628906,122.706940 
	C154.071274,122.320724 152.544098,122.082390 151.014481,121.860916 
	C148.633255,121.516136 146.250397,121.182800 143.232025,120.329414 
M398.715637,103.272186 
	C395.738983,104.194489 392.762299,105.116791 390.535400,105.806786 
	C388.967926,104.833870 387.307709,103.803398 384.949463,102.339645 
	C384.949463,111.207001 384.949463,118.465393 384.949463,125.856178 
	C386.591125,125.856178 388.035400,125.856178 389.903778,125.856178 
	C389.903778,122.903358 389.998627,120.109406 389.882904,117.324196 
	C389.678711,112.409599 391.496857,109.097839 396.461182,107.540955 
	C397.504822,107.213654 398.024658,105.216042 398.715637,103.272186 
z"/>
<path fill="#040404" opacity="1.000000" stroke="none" 
	d="
M104.384331,68.069305 
	C96.001801,70.441147 89.044579,74.412689 83.148727,80.332481 
	C82.028938,81.456818 79.869125,82.557678 78.495445,82.259323 
	C65.559464,79.449631 53.805408,82.130089 42.852646,89.217056 
	C42.620296,89.367401 42.230137,89.273857 41.356613,89.329697 
	C40.281307,86.066597 39.115017,82.688095 38.053463,79.277000 
	C34.313286,67.258682 30.500521,55.260254 27.035973,43.162441 
	C26.627811,41.737190 27.720493,38.895638 28.962431,38.182774 
	C31.847181,36.526955 32.131927,34.650459 30.839300,32.105309 
	C28.548155,27.594103 30.497087,25.762260 34.908680,25.180141 
	C44.086140,23.969160 52.797157,25.196470 60.896404,29.882143 
	C62.305447,30.697321 63.723873,31.496284 65.353249,32.425514 
	C70.307777,20.205675 78.228325,11.458041 91.365189,7.614506 
	C91.973213,8.988339 92.695107,10.091019 92.949387,11.292651 
	C93.725594,14.960634 95.141457,17.407433 99.624329,16.529503 
	C100.586815,16.341007 102.593842,17.542938 102.891266,18.490107 
	C107.752762,33.971806 112.419090,49.514828 117.104774,65.051453 
	C117.184334,65.315247 116.959152,65.670952 116.794777,66.290527 
	C112.873741,66.849525 108.833733,67.425484 104.384331,68.069305 
M85.491486,71.961006 
	C85.461082,72.225273 85.313622,72.633102 85.424789,72.723747 
	C85.652122,72.909126 86.101051,73.090851 86.315430,72.984703 
	C91.340172,70.496696 96.203156,67.605064 101.402885,65.573334 
	C105.129150,64.117348 109.301407,63.802746 113.511925,62.929722 
	C109.240311,49.206753 105.048714,35.943810 101.015259,22.632944 
	C100.067596,19.505547 98.358467,19.603432 95.861664,20.495016 
	C99.128304,31.071545 102.210052,41.395420 105.548416,51.635635 
	C106.482399,54.500576 105.787415,55.884777 103.072380,56.852119 
	C95.549660,59.532387 90.117798,64.745392 85.491486,71.961006 
M70.406700,77.784348 
	C62.304050,71.964470 53.289402,73.893097 44.219734,75.064690 
	C40.456623,63.049187 36.772743,51.286659 33.088863,39.524132 
	C32.498714,39.550636 31.908562,39.577145 31.318411,39.603653 
	C31.081070,41.214344 30.293680,42.980331 30.697334,44.410057 
	C32.993729,52.543835 35.559513,60.601967 38.063705,68.676514 
	C39.744942,74.097534 41.475903,79.503136 43.248795,85.118935 
	C51.701855,79.786636 60.407677,77.556046 70.406700,77.784348 
z"/>
<path fill="#0E0E0E" opacity="1.000000" stroke="none" 
	d="
M250.030930,89.510956 
	C247.596603,89.860527 244.365112,89.803986 243.682434,91.095108 
	C242.757599,92.844269 243.024628,96.098038 244.123871,97.875481 
	C247.159821,102.784561 250.893768,107.261978 254.292892,111.830994 
	C257.983307,109.465187 255.344589,101.601097 263.024597,102.881050 
	C262.854248,103.766472 262.872437,104.589363 262.544281,105.236641 
	C258.975037,112.276535 256.045593,119.237343 265.255127,125.305191 
	C264.682037,125.757782 264.108917,126.210365 263.535828,126.662956 
	C260.776855,125.512611 258.017883,124.362259 254.565781,122.922905 
	C246.244797,128.382095 236.782211,127.649139 232.618286,120.401299 
	C228.877167,113.889412 231.758865,107.682922 241.022736,102.930420 
	C237.711105,97.573334 233.952164,91.924469 240.463135,86.396225 
	C244.689529,82.807716 250.778030,83.750908 256.428101,88.602821 
	C255.775253,89.641571 255.102585,90.711861 254.324478,91.949936 
	C252.893524,91.137825 251.631454,90.421555 250.030930,89.510956 
M237.113861,112.135185 
	C236.176315,116.238777 237.300873,119.454353 241.402023,121.010849 
	C245.700470,122.642212 249.469437,121.904587 252.452240,117.751312 
	C250.813934,115.523788 249.272690,113.394371 247.696259,111.291313 
	C243.442307,105.616287 242.159042,105.635139 237.113861,112.135185 
z"/>
<path fill="#151515" opacity="1.000000" stroke="none" 
	d="
M86.048584,86.141830 
	C90.838905,86.141830 95.141449,86.141830 99.751823,86.141830 
	C99.751823,87.967827 99.751823,89.514725 99.751823,91.400032 
	C93.879044,91.400032 88.109665,91.400032 82.127335,91.400032 
	C82.127335,95.654083 82.127335,99.574043 82.127335,103.939850 
	C87.297180,103.939850 92.377129,103.939850 97.664528,103.939850 
	C97.664528,105.778786 97.664528,107.177628 97.664528,109.049904 
	C92.510323,109.049904 87.434547,109.049904 82.049591,109.049904 
	C82.049591,114.766411 82.049591,120.028389 82.049591,125.705894 
	C80.214790,125.851776 78.664658,125.975029 76.733154,126.128601 
	C76.733154,112.803177 76.733154,99.790527 76.733154,86.141830 
	C79.706078,86.141830 82.633438,86.141830 86.048584,86.141830 
z"/>
<path fill="#121212" opacity="1.000000" stroke="none" 
	d="
M358.908203,126.155136 
	C353.167389,124.533821 350.768005,120.668053 350.509583,115.384010 
	C350.276886,110.624489 351.757507,106.478493 356.114410,103.969322 
	C361.190033,101.046280 365.948669,101.843109 369.534546,105.225586 
	C371.676941,104.230278 373.369598,103.443893 375.668945,102.375656 
	C375.668945,110.857056 375.668945,118.260338 375.668945,126.499977 
	C373.466003,125.801277 371.620331,125.215889 369.955261,124.687798 
	C366.522308,125.181778 362.905609,125.702187 358.908203,126.155136 
M368.023224,120.766685 
	C372.628571,115.060997 371.311493,107.830345 365.187134,107.137299 
	C362.579346,106.842194 358.564484,108.255676 357.249084,110.250870 
	C355.906158,112.287750 356.151001,116.476669 357.381104,118.853958 
	C359.386810,122.730133 363.362762,123.116623 368.023224,120.766685 
z"/>
<path fill="#0F0F0F" opacity="1.000000" stroke="none" 
	d="
M122.687912,103.058228 
	C129.357605,106.756493 131.561142,111.221649 130.130600,117.478928 
	C128.945068,122.664505 124.726448,126.084061 118.982071,126.515785 
	C111.511322,127.077255 105.808884,122.221115 105.484314,115.021240 
	C105.157631,107.774483 110.908218,102.054062 118.394508,102.272141 
	C119.706345,102.310356 121.007332,102.721222 122.687912,103.058228 
M119.218643,122.097000 
	C120.268753,121.649727 121.470238,121.397301 122.341766,120.720169 
	C125.478561,118.283066 126.201103,113.314766 123.964691,109.946762 
	C121.675308,106.499001 118.404877,105.863716 114.816406,107.386963 
	C111.338974,108.863091 109.267639,114.279343 111.489342,117.614357 
	C112.898155,119.729126 116.037010,120.691368 119.218643,122.097000 
z"/>
<path fill="#1F1F1F" opacity="1.000000" stroke="none" 
	d="
M175.647095,120.746094 
	C177.146454,114.912254 178.332565,109.356483 179.628098,103.288147 
	C180.231308,103.259254 181.657776,103.190941 183.429489,103.106087 
	C183.429489,110.793846 183.429489,118.197227 183.429489,126.660080 
	C181.275848,125.735596 179.568054,125.002502 177.287537,124.023560 
	C176.317291,124.538017 174.550598,125.800819 172.581711,126.456223 
	C167.167267,128.258591 162.716278,125.365303 162.414291,119.685547 
	C162.132797,114.391281 162.354141,109.070290 162.354141,103.431496 
	C164.071457,103.297005 165.479477,103.186737 166.891037,103.076195 
	C167.212082,103.733688 167.589706,104.152496 167.597412,104.578011 
	C167.669876,108.574524 167.616165,112.573837 167.721603,116.569099 
	C167.873520,122.324249 169.709839,123.370064 175.647095,120.746094 
z"/>
<path fill="#101010" opacity="1.000000" stroke="none" 
	d="
M426.841125,109.614090 
	C426.855682,115.182289 426.855682,120.309326 426.855682,125.729630 
	C425.023285,125.729630 423.470764,125.729630 421.589447,125.729630 
	C421.589447,121.508896 421.649811,117.372864 421.568512,113.239632 
	C421.513123,110.422806 421.702942,107.224869 417.668243,106.951927 
	C413.946777,106.700165 411.531830,108.788284 410.945648,112.259644 
	C410.343872,115.823341 410.464966,119.509079 410.268921,123.141365 
	C410.224579,123.963371 410.176849,124.785187 410.119019,125.814499 
	C408.574127,125.814499 407.127838,125.814499 405.389954,125.814499 
	C405.389954,118.447456 405.389954,111.060860 405.389954,102.547020 
	C407.494263,103.475670 409.098907,104.183823 411.505402,105.245827 
	C419.711792,100.271446 424.547272,101.185104 426.841125,109.614090 
z"/>
<path fill="#0F0F0F" opacity="1.000000" stroke="none" 
	d="
M341.913452,123.985382 
	C340.713348,124.834259 339.730988,125.508598 338.644104,125.843338 
	C331.355194,128.088135 324.570496,124.863701 322.502899,118.241600 
	C320.448517,111.661919 324.072113,104.927460 330.751587,102.911407 
	C337.875549,100.761192 343.245972,103.880905 346.009674,112.181412 
	C340.328003,114.232925 334.623444,116.292694 328.634338,118.455208 
	C330.669159,122.458580 334.143372,122.836250 337.433105,121.477623 
	C340.364655,120.266930 341.340729,121.196915 341.913452,123.985382 
M334.438782,106.335388 
	C328.428253,107.659424 326.751984,109.835983 327.768921,115.232826 
	C331.870392,113.686623 335.936707,112.153679 341.312256,110.127182 
	C338.597687,108.490471 336.884155,107.457336 334.438782,106.335388 
z"/>
<path fill="#030303" opacity="1.000000" stroke="none" 
	d="
M291.052948,87.446625 
	C292.593262,86.667587 294.070038,86.345665 296.085205,85.906372 
	C296.085205,97.761032 296.085205,108.988602 296.085205,120.631004 
	C302.913666,120.631004 309.318878,120.631004 316.119568,120.631004 
	C316.119568,122.544876 316.119568,124.045052 316.119568,125.790604 
	C307.862976,125.790604 299.638641,125.790604 290.989410,125.790604 
	C290.989410,113.064926 290.989410,100.484337 291.052948,87.446625 
z"/>
<path fill="#0E0E0E" opacity="1.000000" stroke="none" 
	d="
M206.082336,106.926125 
	C204.373856,106.862015 202.824142,106.109543 201.344711,106.228844 
	C199.891785,106.346001 198.510269,107.348824 197.097412,107.962967 
	C197.931351,109.197166 198.543304,110.717514 199.661636,111.585121 
	C200.780777,112.453392 202.853867,112.275604 203.714554,113.254601 
	C205.414795,115.188560 207.926987,117.838051 207.596786,119.761353 
	C207.195465,122.099068 204.484299,125.313133 202.274948,125.776573 
	C198.744400,126.517151 194.803879,125.303253 191.036682,124.915649 
	C190.985199,123.988190 190.933716,123.060730 190.882233,122.133270 
	C192.208282,121.955910 193.553894,121.550568 194.855164,121.662155 
	C196.298233,121.785896 197.756287,122.816910 199.104843,122.645020 
	C200.357864,122.485313 201.475296,121.261971 202.652435,120.506935 
	C201.909851,119.352615 201.403595,117.865440 200.364990,117.128075 
	C199.061188,116.202408 196.853317,116.311905 195.872894,115.221687 
	C194.161057,113.318123 191.735870,110.582314 192.099747,108.668808 
	C192.528915,106.411903 195.291138,103.730469 197.618835,102.946716 
	C199.951004,102.161453 203.016830,103.390175 205.699997,104.003456 
	C206.070557,104.088158 206.089920,105.709526 206.082336,106.926125 
z"/>
<path fill="#0F0F0F" opacity="1.000000" stroke="none" 
	d="
M143.550125,120.587021 
	C146.250397,121.182800 148.633255,121.516136 151.014481,121.860916 
	C152.544098,122.082390 154.071274,122.320724 156.628906,122.706940 
	C150.320984,127.664566 143.121231,127.433594 138.781174,123.126442 
	C134.610962,118.987839 134.361465,111.272781 138.251541,106.749603 
	C142.433502,101.887047 149.580643,101.362915 156.983017,106.307274 
	C154.495850,106.965057 152.739059,108.059578 151.480240,107.644379 
	C147.719559,106.403999 144.438629,106.644112 142.179306,109.967232 
	C139.766891,113.515526 140.075333,117.159698 143.550125,120.587021 
z"/>
<path fill="#0E0E0E" opacity="1.000000" stroke="none" 
	d="
M398.750763,103.630142 
	C398.024658,105.216042 397.504822,107.213654 396.461182,107.540955 
	C391.496857,109.097839 389.678711,112.409599 389.882904,117.324196 
	C389.998627,120.109406 389.903778,122.903358 389.903778,125.856178 
	C388.035400,125.856178 386.591125,125.856178 384.949463,125.856178 
	C384.949463,118.465393 384.949463,111.207001 384.949463,102.339645 
	C387.307709,103.803398 388.967926,104.833870 390.535400,105.806786 
	C392.762299,105.116791 395.738983,104.194489 398.750763,103.630142 
z"/>
<path fill="#F1F1F1" opacity="1.000000" stroke="none" 
	d="
M85.711273,71.677231 
	C90.117798,64.745392 95.549660,59.532387 103.072380,56.852119 
	C105.787415,55.884777 106.482399,54.500576 105.548416,51.635635 
	C102.210052,41.395420 99.128304,31.071545 95.861664,20.495016 
	C98.358467,19.603432 100.067596,19.505547 101.015259,22.632944 
	C105.048714,35.943810 109.240311,49.206753 113.511925,62.929722 
	C109.301407,63.802746 105.129150,64.117348 101.402885,65.573334 
	C96.203156,67.605064 91.340172,70.496696 86.315430,72.984703 
	C86.101051,73.090851 85.652122,72.909126 85.424789,72.723747 
	C85.313622,72.633102 85.461082,72.225273 85.711273,71.677231 
z"/>
<path fill="#F1F1F1" opacity="1.000000" stroke="none" 
	d="
M70.093002,77.814026 
	C60.407677,77.556046 51.701855,79.786636 43.248795,85.118935 
	C41.475903,79.503136 39.744942,74.097534 38.063705,68.676514 
	C35.559513,60.601967 32.993729,52.543835 30.697334,44.410057 
	C30.293680,42.980331 31.081070,41.214344 31.318411,39.603653 
	C31.908562,39.577145 32.498714,39.550636 33.088863,39.524132 
	C36.772743,51.286659 40.456623,63.049187 44.219734,75.064690 
	C53.289402,73.893097 62.304050,71.964470 70.093002,77.814026 
z"/>
<path fill="#F6F6F6" opacity="1.000000" stroke="none" 
	d="
M237.270874,111.769974 
	C242.159042,105.635139 243.442307,105.616287 247.696259,111.291313 
	C249.272690,113.394371 250.813934,115.523788 252.452240,117.751312 
	C249.469437,121.904587 245.700470,122.642212 241.402023,121.010849 
	C237.300873,119.454353 236.176315,116.238777 237.270874,111.769974 
z"/>
<path fill="#FAFAFA" opacity="1.000000" stroke="none" 
	d="
M367.678467,120.970406 
	C363.362762,123.116623 359.386810,122.730133 357.381104,118.853958 
	C356.151001,116.476669 355.906158,112.287750 357.249084,110.250870 
	C358.564484,108.255676 362.579346,106.842194 365.187134,107.137299 
	C371.311493,107.830345 372.628571,115.060997 367.678467,120.970406 
z"/>
<path fill="#F9F9F9" opacity="1.000000" stroke="none" 
	d="
M118.809311,122.133743 
	C116.037010,120.691368 112.898155,119.729126 111.489342,117.614357 
	C109.267639,114.279343 111.338974,108.863091 114.816406,107.386963 
	C118.404877,105.863716 121.675308,106.499001 123.964691,109.946762 
	C126.201103,113.314766 125.478561,118.283066 122.341766,120.720169 
	C121.470238,121.397301 120.268753,121.649727 118.809311,122.133743 
z"/>
<path fill="#ECECEC" opacity="1.000000" stroke="none" 
	d="
M334.804718,106.379791 
	C336.884155,107.457336 338.597687,108.490471 341.312256,110.127182 
	C335.936707,112.153679 331.870392,113.686623 327.768921,115.232826 
	C326.751984,109.835983 328.428253,107.659424 334.804718,106.379791 
z"/>
</svg>